# xmcd
# 
# Track frame offsets:
#     150
#     44083
#     89814
#     126439
#     164462
#     205016
#     235796
#     268289
# 
# Disc length: 4177
# 
# Revision: 1
# Processed by: cddbd v1.5.2PL0 Copyright (c) Steve Scherf et al.
# Submitted via: BonkEnc v1.0.8
# 
DISCID=7a104f08
DTITLE=Matthieu Michel - Live At Theatre Oriental
DYEAR=2003
DGENRE=Contemporary Jazz
TTITLE0=Nag Champa's Flavor
TTITLE1=Des Jours Meilleurs
TTITLE2=Oriental
TTITLE3=Suzette
TTITLE4=Cadillac
TTITLE5=Havanna Club
TTITLE6=Let It In
TTITLE7=L'Accordeoniste
EXTD=YEAR: 2003
EXTT0=
EXTT1=
EXTT2=
EXTT3=
EXTT4=
EXTT5=
EXTT6=
EXTT7=
PLAYORDER=
